<svg width="1440" height="750" xmlns="http://www.w3.org/2000/svg">
 <g>
  <title>background</title>
  <rect x="-1" y="-1" width="2882.016796" height="1502.008748" id="canvas_background" fill="none"/>
 </g>

 <g>
  <title>Layer 1</title>
  <path stroke="null" fill="#1ab798" d="m-2.000002,184.807863l53.866671,-13.519214c53.866671,-13.519214 161.600012,-40.557641 269.333353,-36.079401c107.733341,4.81622 215.466682,40.304156 323.200024,76.637043c107.733341,36.332887 215.466682,71.820823 323.200024,58.555094c107.733341,-13.772699 215.466682,-76.299062 323.200024,-81.115282c107.733341,-4.47824 215.466682,49.598615 269.333353,76.637043l53.866671,27.038427l0,27.038427l-53.866671,0c-53.866671,0 -161.600012,0 -269.333353,0c-107.733341,0 -215.466682,0 -323.200024,0c-107.733341,0 -215.466682,0 -323.200024,0c-107.733341,0 -215.466682,0 -323.200024,0c-107.733341,0 -215.466682,0 -269.333353,0l-53.866671,0l0,-135.192137z" id="svg_1"/>
  <rect fill="#1ab798" stroke-width="1.5" x="-9.023888" y="315.904327" width="1466.048017" height="440.014433" id="svg_3"/>
 </g>
</svg>