<svg width="1440" height="750" xmlns="http://www.w3.org/2000/svg">
 <g>
  <title>background</title>
  <rect x="-1" y="-1" width="2882.016796" height="1502.008748" id="canvas_background" fill="none"/>
 </g>

 <g>
  <title>Layer 1</title>
  <path fill="#1ab798" d="m0,156l48,-16c48,-16 144,-48 240,-48c96,0 192,32 288,64c96,32 192,64 288,69.3c96,5.7 192,-16.3 288,-26.6c96,-10.7 192,-10.7 240,-10.7l48,0l0,160l-48,0c-48,0 -144,0 -240,0c-96,0 -192,0 -288,0c-96,0 -192,0 -288,0c-96,0 -192,0 -288,0c-96,0 -192,0 -240,0l-48,0l0,-192z" id="svg_1"/>
  <rect fill="#1ab798" stroke-width="1.5" stroke-opacity="null" fill-opacity="null" x="-15.000063" y="313.906244" width="1472.000071" height="462.000052" id="svg_2" stroke="null"/>
 </g>
</svg>