<svg width="1440" height="750" xmlns="http://www.w3.org/2000/svg">
 <g>
  <title>background</title>
  <rect x="-1" y="-1" width="2882.094375" height="1502.049154" id="canvas_background" fill="none"/>
 </g>

 <g>
  <title>Layer 1</title>
  <path stroke="null" fill="#1ab798" d="m-186.00111,292.860928l54.200037,-36.2137c54.200037,-35.874461 162.600111,-108.810718 271.000185,-135.695362c108.400074,-27.393501 216.800148,-8.735389 325.200222,27.139072c108.400074,36.2137 216.800148,90.491845 325.200222,85.996936c108.400074,-4.834147 216.800148,-67.593252 325.200222,-81.417217c108.400074,-13.315107 216.800148,22.304925 271.000185,40.708609l54.200037,18.064445l0,108.55629l-54.200037,0c-54.200037,0 -162.600111,0 -271.000185,0c-108.400074,0 -216.800148,0 -325.200222,0c-108.400074,0 -216.800148,0 -325.200222,0c-108.400074,0 -216.800148,0 -325.200222,0c-108.400074,0 -216.800148,0 -271.000185,0l-54.200037,0l0,-27.139072z" id="svg_1"/>
  <rect fill="#1ab798" stroke-width="1.5" x="-23.004402" y="315.905941" width="1468.008669" height="438.002538" id="svg_3"/>
 </g>
</svg>